<!-- Примерна икона: -->
<svg xmlns="http://www.w3.org/2000/svg" width="20" height="20" viewBox="0 0 48 48">
  <path fill="#fbc02d" d="M43.6 20.5h-1.6V20H24v8h11.3C33.5 33.4 29.2 36 24 36c-6.6 0-12-5.4-12-12s5.4-12 12-12c3.1 0 5.9 1.2 8 3.1l6-6C34.5 5.1 29.5 3 24 3 12.3 3 3 12.3 3 24s9.3 21 21 21c10.5 0 20.1-7.7 20.1-21 0-1.2-.1-2.1-.5-3.5z"></path>
  <path fill="#e53935" d="M6.3 14.1l6.6 4.8C14.3 15 18.8 12 24 12c3.1 0 5.9 1.2 8 3.1l6-6C34.5 5.1 29.5 3 24 3 15.3 3 7.8 8.7 6.3 14.1z"></path>
  <path fill="#4caf50" d="M24 45c5.2 0 10.1-2 13.8-5.2l-6.4-5.2C29.2 36 26.7 37 24 37c-5.2 0-9.5-3.6-11-8.4l-6.6 5.1C9 39.6 16.1 45 24 45z"></path>
  <path fill="#1565c0" d="M43.6 20.5H42V20H24v8h11.3c-1.4 3.8-5.2 6.5-9.3 6.5-5.2 0-9.5-3.6-11-8.4l-6.6 5.1C9 39.6 16.1 45 24 45c10.5 0 20.1-7.7 20.1-21 0-1.2-.1-2.1-.5-3.5z"></path>
</svg>
